<?xml version="1.0" encoding="UTF-8" standalone="no"?>
<!-- Created with Inkscape (http://www.inkscape.org/) -->

<svg
   xmlns:dc="http://purl.org/dc/elements/1.1/"
   xmlns:cc="http://creativecommons.org/ns#"
   xmlns:rdf="http://www.w3.org/1999/02/22-rdf-syntax-ns#"
   xmlns:svg="http://www.w3.org/2000/svg"
   xmlns="http://www.w3.org/2000/svg"
   xmlns:sodipodi="http://sodipodi.sourceforge.net/DTD/sodipodi-0.dtd"
   xmlns:inkscape="http://www.inkscape.org/namespaces/inkscape"
   version="1.0"
   width="162.5"
   height="162.5"
   id="svg183"
   inkscape:version="0.47 r22583"
   sodipodi:docname="bg.svg">
  <metadata
     id="metadata12">
    <rdf:RDF>
      <cc:Work
         rdf:about="">
        <dc:format>image/svg+xml</dc:format>
        <dc:type
           rdf:resource="http://purl.org/dc/dcmitype/StillImage" />
      </cc:Work>
    </rdf:RDF>
  </metadata>
  <sodipodi:namedview
     pagecolor="#ffffff"
     bordercolor="#666666"
     borderopacity="1"
     objecttolerance="10"
     gridtolerance="10"
     guidetolerance="10"
     inkscape:pageopacity="0"
     inkscape:pageshadow="2"
     inkscape:window-width="712"
     inkscape:window-height="845"
     id="namedview10"
     showgrid="false"
     inkscape:zoom="1.4523077"
     inkscape:cx="81.25"
     inkscape:cy="81.25"
     inkscape:window-x="0"
     inkscape:window-y="0"
     inkscape:window-maximized="0"
     inkscape:current-layer="svg183" />
  <defs
     id="defs9">
    <inkscape:perspective
       sodipodi:type="inkscape:persp3d"
       inkscape:vp_x="0 : 81.25 : 1"
       inkscape:vp_y="0 : 1000 : 0"
       inkscape:vp_z="162.5 : 81.25 : 1"
       inkscape:persp3d-origin="81.25 : 54.166667 : 1"
       id="perspective14" />
    <inkscape:perspective
       id="perspective2844"
       inkscape:persp3d-origin="0.5 : 0.33333333 : 1"
       inkscape:vp_z="1 : 0.5 : 1"
       inkscape:vp_y="0 : 1000 : 0"
       inkscape:vp_x="0 : 0.5 : 1"
       sodipodi:type="inkscape:persp3d" />
  </defs>
  <path
     style="fill:#000000;stroke:none"
     d="M 144.58249,32.929658 H 116.43472 V 21.67055 H 46.06528 V 32.929658 H 17.917514 c -8.286704,0 -15.012145,6.725441 -15.012145,15.012145 v 77.875507 c 0,8.2867 6.725441,15.01214 15.012145,15.01214 H 144.58249 c 8.2867,0 15.01214,-6.72544 15.01214,-15.01214 V 47.941803 c 0,-8.286704 -6.72544,-15.012145 -15.01214,-15.012145 z M 81.246245,132.37761 c -25.085295,0 -45.486796,-20.40901 -45.486796,-45.494301 0,-25.085296 20.401501,-45.501813 45.486796,-45.501813 25.085295,0 45.501815,20.416517 45.501815,45.501813 0,25.085291 -20.42403,45.494301 -45.501815,45.494301 z m 0,-75.991475 c -16.84362,0 -30.489661,13.653546 -30.489661,30.489664 0,16.843631 13.653536,30.489671 30.489661,30.489671 16.843635,0 30.489675,-13.64604 30.489675,-30.489671 0.007,-16.836118 -13.638545,-30.489664 -30.489675,-30.489664 z"
     id="path2828" />
</svg>
