<?xml version="1.0" encoding="UTF-8" standalone="no"?>
<!-- Created with Inkscape (http://www.inkscape.org/) -->

<svg
   xmlns:dc="http://purl.org/dc/elements/1.1/"
   xmlns:cc="http://creativecommons.org/ns#"
   xmlns:rdf="http://www.w3.org/1999/02/22-rdf-syntax-ns#"
   xmlns:svg="http://www.w3.org/2000/svg"
   xmlns="http://www.w3.org/2000/svg"
   xmlns:sodipodi="http://sodipodi.sourceforge.net/DTD/sodipodi-0.dtd"
   xmlns:inkscape="http://www.inkscape.org/namespaces/inkscape"
   version="1.0"
   width="162.5"
   height="162.5"
   id="svg101"
   inkscape:version="0.47 r22583"
   sodipodi:docname="file.svg">
  <metadata
     id="metadata8">
    <rdf:RDF>
      <cc:Work
         rdf:about="">
        <dc:format>image/svg+xml</dc:format>
        <dc:type
           rdf:resource="http://purl.org/dc/dcmitype/StillImage" />
      </cc:Work>
    </rdf:RDF>
  </metadata>
  <sodipodi:namedview
     pagecolor="#ffffff"
     bordercolor="#666666"
     borderopacity="1"
     objecttolerance="10"
     gridtolerance="10"
     guidetolerance="10"
     inkscape:pageopacity="0"
     inkscape:pageshadow="2"
     inkscape:window-width="712"
     inkscape:window-height="845"
     id="namedview6"
     showgrid="false"
     inkscape:zoom="1.6184615"
     inkscape:cx="81.25"
     inkscape:cy="81.25"
     inkscape:window-x="0"
     inkscape:window-y="0"
     inkscape:window-maximized="0"
     inkscape:current-layer="svg101" />
  <defs
     id="defs5">
    <inkscape:perspective
       sodipodi:type="inkscape:persp3d"
       inkscape:vp_x="0 : 81.25 : 1"
       inkscape:vp_y="0 : 1000 : 0"
       inkscape:vp_z="162.5 : 81.25 : 1"
       inkscape:persp3d-origin="81.25 : 54.166667 : 1"
       id="perspective10" />
    <inkscape:perspective
       id="perspective2840"
       inkscape:persp3d-origin="0.5 : 0.33333333 : 1"
       inkscape:vp_z="1 : 0.5 : 1"
       inkscape:vp_y="0 : 1000 : 0"
       inkscape:vp_x="0 : 0.5 : 1"
       sodipodi:type="inkscape:persp3d" />
  </defs>
  <path
     style="fill:#000000;stroke:#000000;stroke-opacity:1;stroke-width:10;stroke-miterlimit:4;stroke-dasharray:none;stroke-linejoin:miter"
     d="M 116.74473,24.52993 C 107.07846,15.140786 96.652849,7.6194954 88.100633,6.5941158 87.635055,6.5276072 87.15285,6.4888019 86.642932,6.4777217 H 30.357955 c -0.8979,0 -1.784713,0.3491834 -2.416569,0.9976659 -0.626312,0.631855 -0.997665,1.5186701 -0.997665,2.4221111 V 152.61914 c 0,0.89789 0.349183,1.75699 0.997665,2.41102 0.648483,0.64294 1.502042,0.99212 2.416569,0.99212 H 132.14205 c 0.89789,0 1.757,-0.34363 2.40548,-0.99212 0.64847,-0.64849 1.00875,-1.50759 1.00875,-2.41102 V 57.646893 C 135.35674,46.622685 126.72139,34.600812 116.74473,24.52993 z m 11.97199,124.65834 H 33.761104 V 13.295104 h 52.887372 v 0.01108 c 2.305721,-0.138565 4.295509,2.139439 5.819718,7.349471 1.385651,4.960618 1.734826,11.428817 1.729285,15.91277 0.01106,3.286754 -0.149649,5.492704 -0.149649,5.492704 l -0.271586,3.613768 3.635933,0.0388 c 0.01664,0 8.402573,0.09976 16.627773,1.967617 7.90372,1.707117 14.08371,5.110267 14.66014,8.962365 0.0221,0.343642 0.0277,0.687281 0.0221,1.00875 v 91.535832 z"
     id="path2824" />
</svg>
