<?xml version="1.0" encoding="UTF-8" standalone="no"?>
<!-- Created with Inkscape (http://www.inkscape.org/) -->

<svg
   xmlns:dc="http://purl.org/dc/elements/1.1/"
   xmlns:cc="http://creativecommons.org/ns#"
   xmlns:rdf="http://www.w3.org/1999/02/22-rdf-syntax-ns#"
   xmlns:svg="http://www.w3.org/2000/svg"
   xmlns="http://www.w3.org/2000/svg"
   xmlns:sodipodi="http://sodipodi.sourceforge.net/DTD/sodipodi-0.dtd"
   xmlns:inkscape="http://www.inkscape.org/namespaces/inkscape"
   version="1.0"
   width="162.5"
   height="162.5"
   id="svg101"
   sodipodi:version="0.32"
   inkscape:version="0.47 r22583"
   sodipodi:docname="music.svg"
   inkscape:output_extension="org.inkscape.output.svg.inkscape">
  <metadata
     id="metadata11">
    <rdf:RDF>
      <cc:Work
         rdf:about="">
        <dc:format>image/svg+xml</dc:format>
        <dc:type
           rdf:resource="http://purl.org/dc/dcmitype/StillImage" />
      </cc:Work>
    </rdf:RDF>
  </metadata>
  <sodipodi:namedview
     inkscape:window-height="845"
     inkscape:window-width="712"
     inkscape:pageshadow="2"
     inkscape:pageopacity="0.0"
     guidetolerance="10.0"
     gridtolerance="10.0"
     objecttolerance="10.0"
     borderopacity="1.0"
     bordercolor="#666666"
     pagecolor="#ffffff"
     id="base"
     showgrid="false"
     inkscape:zoom="2.8553846"
     inkscape:cx="39.190136"
     inkscape:cy="61.050209"
     inkscape:window-x="0"
     inkscape:window-y="0"
     inkscape:current-layer="svg101"
     inkscape:window-maximized="0" />
  <defs
     id="defs9">
    <inkscape:perspective
       sodipodi:type="inkscape:persp3d"
       inkscape:vp_x="0 : 81.25 : 1"
       inkscape:vp_y="0 : 1000 : 0"
       inkscape:vp_z="162.5 : 81.25 : 1"
       inkscape:persp3d-origin="81.25 : 54.166667 : 1"
       id="perspective13" />
  </defs>
  <g
     id="g3171"
     style="fill:#000000;fill-opacity:1;stroke:none;stroke-opacity:1;fill-rule:nonzero;stroke-width:0.21976014999999999;stroke-miterlimit:4;stroke-dasharray:none;"
     transform="matrix(3.2247039,0,0,3.2247039,-117.2763,-252.94039)">
    <g
       id="g3156"
       style="fill:#000000;fill-opacity:1;stroke:none;stroke-opacity:1;fill-rule:nonzero;stroke-width:0.21976015;stroke-miterlimit:4;stroke-dasharray:none">
      <ellipse
         cx="47.734375"
         cy="85.566406"
         rx="11.171875"
         ry="6.8554692"
         transform="matrix(0.853327,0,0,0.923599,6.097918,31.89309)"
         style="font-size:12px;fill:#000000;fill-opacity:1;fill-rule:nonzero;stroke:none;stroke-opacity:1;stroke-width:0.24754233;stroke-miterlimit:4;stroke-dasharray:none"
         id="path421"
         sodipodi:cx="47.734375"
         sodipodi:cy="85.566406"
         sodipodi:rx="11.171875"
         sodipodi:ry="6.8554692"
         d="m 58.90625,85.566406 c 0,3.786171 -5.001819,6.855469 -11.171875,6.855469 -6.170056,0 -11.171875,-3.069298 -11.171875,-6.855469 0,-3.786171 5.001819,-6.855469 11.171875,-6.855469 6.170056,0 11.171875,3.069298 11.171875,6.855469 z" />
      <ellipse
         cx="47.734375"
         cy="85.566406"
         rx="11.171875"
         ry="6.8554692"
         transform="matrix(0.853327,0,0,0.923599,35.56441,38.4236)"
         style="font-size:12px;fill:#000000;fill-opacity:1;fill-rule:nonzero;stroke:none;stroke-opacity:1;stroke-width:0.24754233;stroke-miterlimit:4;stroke-dasharray:none"
         id="path423"
         sodipodi:cx="47.734375"
         sodipodi:cy="85.566406"
         sodipodi:rx="11.171875"
         sodipodi:ry="6.8554692"
         d="m 58.90625,85.566406 c 0,3.786171 -5.001819,6.855469 -11.171875,6.855469 -6.170056,0 -11.171875,-3.069298 -11.171875,-6.855469 0,-3.786171 5.001819,-6.855469 11.171875,-6.855469 6.170056,0 11.171875,3.069298 11.171875,6.855469 z" />
      <path
         d="M 54.19756,109.7496 C 54.19756,109.2804 54.19747,83.48453 54.19747,83.48453 C 54.19747,83.48453 85.39715,92.39614 85.83064,92.39614 C 85.39715,92.39614 85.83064,116.3155 85.83064,116.3155 C 85.83064,116.3155 83.66404,114.9089 83.66404,114.9089 C 83.66404,115.378 83.23055,98.02455 83.23055,98.02455 C 83.23055,98.02455 56.36415,90.51939 56.36415,90.51939 C 56.36415,90.51939 56.36415,111.1563 56.36415,111.1563 C 56.36415,111.1563 54.63088,110.688 54.19756,109.7496 z"
         style="font-size:12px;fill:#000000;fill-opacity:1;fill-rule:nonzero;stroke:none;stroke-opacity:1;stroke-width:0.21976015;stroke-miterlimit:4;stroke-dasharray:none"
         id="path424" />
    </g>
  </g>
</svg>
