<?xml version="1.0" encoding="UTF-8" standalone="no"?>
<!-- Created with Inkscape (http://www.inkscape.org/) -->

<svg
   xmlns:dc="http://purl.org/dc/elements/1.1/"
   xmlns:cc="http://creativecommons.org/ns#"
   xmlns:rdf="http://www.w3.org/1999/02/22-rdf-syntax-ns#"
   xmlns:svg="http://www.w3.org/2000/svg"
   xmlns="http://www.w3.org/2000/svg"
   xmlns:sodipodi="http://sodipodi.sourceforge.net/DTD/sodipodi-0.dtd"
   xmlns:inkscape="http://www.inkscape.org/namespaces/inkscape"
   version="1.0"
   width="162.5"
   height="162.5"
   id="svg101"
   inkscape:version="0.47 r22583"
   sodipodi:docname="plugins.svg">
  <metadata
     id="metadata13">
    <rdf:RDF>
      <cc:Work
         rdf:about="">
        <dc:format>image/svg+xml</dc:format>
        <dc:type
           rdf:resource="http://purl.org/dc/dcmitype/StillImage" />
      </cc:Work>
    </rdf:RDF>
  </metadata>
  <sodipodi:namedview
     pagecolor="#ffffff"
     bordercolor="#666666"
     borderopacity="1"
     objecttolerance="10"
     gridtolerance="10"
     guidetolerance="10"
     inkscape:pageopacity="0"
     inkscape:pageshadow="2"
     inkscape:window-width="1440"
     inkscape:window-height="852"
     id="namedview11"
     showgrid="false"
     inkscape:zoom="1.4523077"
     inkscape:cx="-86.758475"
     inkscape:cy="148.8468"
     inkscape:window-x="-4"
     inkscape:window-y="-3"
     inkscape:window-maximized="1"
     inkscape:current-layer="svg101" />
  <defs
     id="defs5">
    <inkscape:perspective
       sodipodi:type="inkscape:persp3d"
       inkscape:vp_x="0 : 81.25 : 1"
       inkscape:vp_y="0 : 1000 : 0"
       inkscape:vp_z="162.5 : 81.25 : 1"
       inkscape:persp3d-origin="81.25 : 54.166667 : 1"
       id="perspective15" />
    <inkscape:perspective
       id="perspective2837"
       inkscape:persp3d-origin="0.5 : 0.33333333 : 1"
       inkscape:vp_z="1 : 0.5 : 1"
       inkscape:vp_y="0 : 1000 : 0"
       inkscape:vp_x="0 : 0.5 : 1"
       sodipodi:type="inkscape:persp3d" />
  </defs>
  <path
     style="fill:#000000;stroke:none"
     d="m 134.39196,81.696964 -20.69985,-8.215069 16.67473,-42.005857 c 1.48881,-3.748624 -0.3403,-8.002382 -4.09956,-9.491197 -3.75926,-1.488815 -8.0077,0.345618 -9.4912,4.099559 L 100.10135,68.090257 74.153431,57.790847 90.822841,15.784989 c 1.49413,-3.753941 -0.3403,-8.0076974 -4.09424,-9.4965134 -3.75394,-1.483498 -8.0077,0.345618 -9.4912,4.0995584 l -16.67473,42.005858 -20.68921,-8.209753 -8.58196,21.619724 11.43198,4.540886 -13.489731,33.982201 c -3.243491,8.18849 0.760359,17.45636 8.948841,20.71049 l 8.64576,3.43491 -4.66318,11.73505 c -2.1641,5.45013 0.50514,11.63403 5.9659,13.80344 l 4.94499,1.96205 c 5.45544,2.16941 11.63403,-0.50513 13.80344,-5.96058 l 4.66319,-11.73505 9.87935,3.91877 c 8.18848,3.24881 17.46167,-0.75504 20.715799,-8.94352 l 13.47909,-33.982208 10.19839,4.046388 8.57664,-21.619726 z"
     id="path2821" />
</svg>
