<?xml version="1.0" encoding="UTF-8" standalone="no"?>
<!-- Created with Inkscape (http://www.inkscape.org/) -->

<svg
   xmlns:dc="http://purl.org/dc/elements/1.1/"
   xmlns:cc="http://creativecommons.org/ns#"
   xmlns:rdf="http://www.w3.org/1999/02/22-rdf-syntax-ns#"
   xmlns:svg="http://www.w3.org/2000/svg"
   xmlns="http://www.w3.org/2000/svg"
   xmlns:sodipodi="http://sodipodi.sourceforge.net/DTD/sodipodi-0.dtd"
   xmlns:inkscape="http://www.inkscape.org/namespaces/inkscape"
   version="1.0"
   width="162.5"
   height="162.5"
   id="svg101"
   sodipodi:version="0.32"
   inkscape:version="0.47 r22583"
   sodipodi:docname="plus.svg"
   inkscape:output_extension="org.inkscape.output.svg.inkscape">
  <metadata
     id="metadata9">
    <rdf:RDF>
      <cc:Work
         rdf:about="">
        <dc:format>image/svg+xml</dc:format>
        <dc:type
           rdf:resource="http://purl.org/dc/dcmitype/StillImage" />
      </cc:Work>
    </rdf:RDF>
  </metadata>
  <sodipodi:namedview
     inkscape:window-height="845"
     inkscape:window-width="712"
     inkscape:pageshadow="2"
     inkscape:pageopacity="0.0"
     guidetolerance="10.0"
     gridtolerance="10.0"
     objecttolerance="10.0"
     borderopacity="1.0"
     bordercolor="#666666"
     pagecolor="#ffffff"
     id="base"
     showgrid="false"
     inkscape:zoom="2.8553846"
     inkscape:cx="118.3827"
     inkscape:cy="64.434997"
     inkscape:window-x="0"
     inkscape:window-y="0"
     inkscape:current-layer="svg101"
     inkscape:window-maximized="0" />
  <defs
     id="defs7">
    <inkscape:perspective
       sodipodi:type="inkscape:persp3d"
       inkscape:vp_x="0 : 81.25 : 1"
       inkscape:vp_y="0 : 1000 : 0"
       inkscape:vp_z="162.5 : 81.25 : 1"
       inkscape:persp3d-origin="81.25 : 54.166667 : 1"
       id="perspective11" />
    <inkscape:perspective
       id="perspective2839"
       inkscape:persp3d-origin="0.5 : 0.33333333 : 1"
       inkscape:vp_z="1 : 0.5 : 1"
       inkscape:vp_y="0 : 1000 : 0"
       inkscape:vp_x="0 : 0.5 : 1"
       sodipodi:type="inkscape:persp3d" />
  </defs>
  <path
     style="fill:#000000;stroke:none"
     d="m 113.74045,2.7483136 c -21.654886,0 -43.309773,0 -64.964665,0 0,15.3370754 0,30.6741534 0,46.0112304 -15.337075,0 -30.674151,0 -46.0112287,0 0,21.660305 0,43.320602 0,64.980916 15.3370777,0 30.6741537,0 46.0112287,0 0,15.33708 0,30.67415 0,46.01123 21.654892,0 43.309779,0 64.964665,0 0,-15.34249 0,-30.68499 0,-46.02747 15.33167,0 30.66333,0 45.99499,0 0,-21.649488 0,-43.298958 0,-64.948436 -15.33708,0 -30.67415,0 -46.01123,0 0.0115,-15.337053 -0.0217,-30.717496 0.0164,-46.0274704 l -8e-5,0 z"
     id="path10"
     sodipodi:nodetypes="cccccccccccccc" />
</svg>
