<?xml version="1.0" encoding="UTF-8" standalone="no"?>
<!-- Created with Inkscape (http://www.inkscape.org/) -->
<svg
   xmlns:svg="http://www.w3.org/2000/svg"
   xmlns="http://www.w3.org/2000/svg"
   version="1.0"
   width="162.5"
   height="162.5"
   id="svg101">
  <defs
     id="defs8" />
  <path
     d="M 7.10938,16.25 C 7.10938,16.25 6.60156,151.328 6.60156,151.328 C 6.60156,151.328 154.375,151.328 154.375,151.328 C 154.375,151.328 154.375,32.5 154.375,32.5 C 154.375,32.5 139.648,16.25 139.648,16.25 C 139.648,16.25 7.61719,16.25 7.10938,16.25 z "
     transform="matrix(1,0,0,1.08647,1.01562,-9.02225)"
     style="font-size:12px;fill:#f0f0f8;fill-opacity:0.19607795;fill-rule:evenodd;stroke:#4a4b4f;stroke-width:11.99230003;stroke-linecap:round;stroke-linejoin:round"
     id="path1047" />
  <path
     d="M 39.6094,11.1719 C 39.6094,11.1719 39.1016,65.5078 39.1016,65.5078 C 39.1016,65.5078 124.414,65.5078 124.414,65.5078 C 124.414,65.5078 123.906,10.664 123.906,10.664"
     style="font-size:12px;fill:none;fill-rule:evenodd;stroke:#4a4b4f;stroke-width:6.25;stroke-linejoin:round"
     id="path1049" />
  <rect
     width="17.2656"
     height="39.609413"
     ry="2.0576301"
     x="98.007828"
     y="18.789108"
     style="font-size:12px;fill:#4a4b4f;fill-rule:evenodd"
     id="rect1054" />
  <rect
     width="75.593361"
     height="75.593361"
     x="4.1139221"
     y="4.6281409"
     style="font-size:12px;fill:#e3f0f8;fill-opacity:0.74901997;fill-rule:evenodd;stroke:#2f3338;stroke-width:6.25;stroke-linecap:round;stroke-linejoin:round"
     id="rect711" />
  <polygon
     points="53.3203,50.2734 33.7662,40.3692 14.5218,50.8625 17.8987,29.2049 1.97209,14.145 23.6133,10.6641 33.0145,-9.13682 43.0126,10.3695 64.7494,13.1918 49.2874,28.7283 53.3203,50.2734 "
     transform="matrix(1.18605,0,0,1.16927,2.191433,17.86081)"
     style="font-size:12px;fill:#7f7f7f;fill-rule:evenodd"
     id="polygon126" />
</svg>
